<svg width="150" height="150" viewBox="0 0 150 150" fill="none" xmlns="http://www.w3.org/2000/svg">
    <circle opacity="0.9" cx="75" cy="75" r="70" fill="white" stroke="#A19F87" stroke-width="10"/>
    <path d="M31.8605 93.44C30.5405 93.44 29.4505 93.17 28.5905 92.63C27.7305 92.11 27.0105 91.39 26.4305 90.47C26.1305 89.97 25.8605 89.31 25.6205 88.49C25.3805 87.67 25.1705 86.74 24.9905 85.7C24.8305 84.66 24.6905 83.57 24.5705 82.43C24.4505 81.29 24.3505 80.16 24.2705 79.04C24.2105 77.9 24.1605 76.83 24.1205 75.83C24.0805 74.83 24.0605 73.96 24.0605 73.22C24.0605 69.84 24.3105 66.94 24.8105 64.52C25.3105 62.08 26.2005 60.21 27.4805 58.91C28.7605 57.61 30.5805 56.96 32.9405 56.96C34.3805 56.96 35.6605 57.26 36.7805 57.86C37.9005 58.44 39.0705 59.36 40.2905 60.62C41.5105 61.88 42.9705 63.51 44.6705 65.51C46.6105 67.95 48.3005 69.89 49.7405 71.33C51.2005 72.77 52.3105 73.49 53.0705 73.49C53.4105 73.49 53.6905 73.44 53.9105 73.34C54.1305 73.22 54.3105 73.01 54.4505 72.71C54.5905 72.39 54.7105 71.93 54.8105 71.33C54.8505 71.05 54.9005 70.65 54.9605 70.13C55.0205 69.59 55.0705 68.99 55.1105 68.33C55.1705 67.67 55.2305 66.99 55.2905 66.29C55.3505 65.57 55.4105 64.88 55.4705 64.22C55.5305 63.56 55.6005 62.97 55.6805 62.45C55.7605 61.93 55.8405 61.54 55.9205 61.28C56.4005 59.86 57.1005 58.85 58.0205 58.25C58.9405 57.65 60.2205 57.35 61.8605 57.35C63.1405 57.35 64.2105 57.56 65.0705 57.98C65.9305 58.4 66.6205 59.02 67.1405 59.84C67.6805 60.66 68.0705 61.66 68.3105 62.84C68.5505 64.02 68.6705 65.38 68.6705 66.92C68.6905 67.66 68.6805 68.54 68.6406 69.56C68.6205 70.56 68.5805 71.64 68.5205 72.8C68.4805 73.94 68.4105 75.11 68.3105 76.31C68.2306 77.51 68.1205 78.68 67.9805 79.82C67.8605 80.96 67.7105 82.04 67.5305 83.06C67.3505 84.06 67.1405 84.94 66.9005 85.7C66.4205 87.3 65.8105 88.62 65.0705 89.66C64.3505 90.7 63.4405 91.48 62.3405 92C61.2605 92.5 59.9405 92.75 58.3805 92.75C57.1005 92.75 55.7805 92.33 54.4205 91.49C53.0605 90.65 51.6705 89.51 50.2505 88.07C48.8505 86.63 47.4205 85 45.9605 83.18C45.0005 81.98 44.1605 80.94 43.4405 80.06C42.7205 79.16 42.1005 78.42 41.5805 77.84C41.0605 77.24 40.6105 76.8 40.2305 76.52C39.8505 76.22 39.5305 76.07 39.2705 76.07C38.6705 76.07 38.2405 76.37 37.9805 76.97C37.7205 77.57 37.5905 78.77 37.5905 80.57C37.5905 81.15 37.5905 81.76 37.5905 82.4C37.5905 83.02 37.5905 83.66 37.5905 84.32C37.6105 84.98 37.6105 85.63 37.5905 86.27C37.5905 86.89 37.5705 87.49 37.5305 88.07C37.4905 88.65 37.4405 89.19 37.3805 89.69C37.3405 90.17 37.2705 90.6 37.1705 90.98C36.6905 91.84 36.0005 92.46 35.1005 92.84C34.2205 93.24 33.1405 93.44 31.8605 93.44ZM81.8996 93.44C80.2196 93.44 78.9596 93.06 78.1196 92.3C77.2796 91.56 76.5396 90.43 75.8996 88.91C75.5796 88.07 75.3096 87.17 75.0896 86.21C74.8696 85.25 74.6896 84.24 74.5496 83.18C74.4096 82.1 74.2996 81.01 74.2196 79.91C74.1596 78.79 74.1296 77.66 74.1296 76.52C74.1296 75.34 74.1796 74.11 74.2796 72.83C74.3996 71.55 74.5596 70.29 74.7596 69.05C74.9796 67.81 75.2296 66.66 75.5096 65.6C75.7896 64.54 76.1096 63.65 76.4696 62.93C77.2896 61.27 78.2996 59.99 79.4996 59.09C80.7196 58.17 82.0396 57.53 83.4596 57.17C84.8996 56.81 86.3496 56.63 87.8096 56.63C89.2096 56.63 90.4896 56.83 91.6496 57.23C92.8096 57.63 93.7796 58.21 94.5596 58.97C94.9796 59.39 95.3796 59.91 95.7596 60.53C96.1396 61.15 96.4996 61.82 96.8396 62.54C97.1996 63.26 97.5196 64.02 97.7996 64.82C98.0796 65.62 98.3396 66.43 98.5796 67.25C98.7996 68.09 99.0496 68.83 99.3296 69.47C99.6296 70.11 100.04 70.43 100.56 70.43C101.16 70.43 101.62 70.11 101.94 69.47C102.26 68.83 102.53 68.09 102.75 67.25C102.95 66.47 103.17 65.7 103.41 64.94C103.65 64.18 103.91 63.45 104.19 62.75C104.47 62.03 104.77 61.37 105.09 60.77C105.41 60.15 105.75 59.59 106.11 59.09C106.87 58.23 107.78 57.59 108.84 57.17C109.9 56.73 111.34 56.51 113.16 56.51C114.7 56.51 116.09 56.74 117.33 57.2C118.57 57.64 119.67 58.28 120.63 59.12C121.61 59.96 122.45 60.97 123.15 62.15C123.83 63.23 124.4 64.5 124.86 65.96C125.34 67.4 125.7 68.95 125.94 70.61C126.18 72.27 126.31 73.99 126.33 75.77C126.33 76.81 126.32 77.86 126.3 78.92C126.28 79.98 126.23 81.03 126.15 82.07C126.07 83.11 125.95 84.12 125.79 85.1C125.63 86.08 125.42 87.02 125.16 87.92C124.62 89.5 123.8 90.65 122.7 91.37C121.62 92.09 120.16 92.45 118.32 92.45C117.2 92.45 116.32 92.23 115.68 91.79C115.06 91.33 114.62 90.76 114.36 90.08C114.28 89.7 114.2 89.27 114.12 88.79C114.04 88.31 113.95 87.81 113.85 87.29C113.77 86.77 113.69 86.25 113.61 85.73C113.55 85.19 113.49 84.67 113.43 84.17C113.37 83.31 113.28 82.44 113.16 81.56C113.04 80.68 112.91 79.88 112.77 79.16C112.65 78.42 112.53 77.83 112.41 77.39C112.17 76.55 111.87 75.89 111.51 75.41C111.15 74.93 110.65 74.69 110.01 74.69C109.35 74.69 108.8 74.98 108.36 75.56C107.92 76.14 107.58 76.91 107.34 77.87C107.28 78.15 107.19 78.51 107.07 78.95C106.97 79.39 106.86 79.87 106.74 80.39C106.64 80.89 106.52 81.42 106.38 81.98C106.26 82.54 106.13 83.09 105.99 83.63C105.85 84.17 105.72 84.68 105.6 85.16C105.18 86.4 104.56 87.35 103.74 88.01C102.94 88.67 101.8 89 100.32 89C98.6796 89 97.4796 88.63 96.7196 87.89C95.9796 87.15 95.2696 86.08 94.5896 84.68C94.4696 84.34 94.3296 83.91 94.1696 83.39C94.0096 82.85 93.8396 82.26 93.6596 81.62C93.4996 80.98 93.3196 80.33 93.1196 79.67C92.9396 79.01 92.7696 78.38 92.6096 77.78C92.4496 77.16 92.2896 76.61 92.1296 76.13C91.8896 75.27 91.6196 74.65 91.3196 74.27C91.0196 73.87 90.6096 73.67 90.0896 73.67C89.4696 73.67 89.0096 73.97 88.7096 74.57C88.4096 75.17 88.1796 76.06 88.0196 77.24C87.9596 77.6 87.8996 78.02 87.8396 78.5C87.7996 78.96 87.7696 79.48 87.7496 80.06C87.7296 80.64 87.7096 81.27 87.6896 81.95C87.6696 82.61 87.6596 83.32 87.6596 84.08C87.6596 84.88 87.6496 85.61 87.6296 86.27C87.6096 86.93 87.5596 87.55 87.4796 88.13C87.4196 88.69 87.3296 89.2 87.2096 89.66C87.1096 90.1 86.9696 90.51 86.7896 90.89C86.3296 91.71 85.6796 92.34 84.8396 92.78C84.0196 93.22 83.0396 93.44 81.8996 93.44Z" fill="#A19F87"/>
</svg>
